<mxfile host="app.diagrams.net" modified="2023-12-06T02:53:04.341Z" agent="Mozilla/5.0 (Macintosh; Intel Mac OS X 10_15_7) AppleWebKit/537.36 (KHTML, like Gecko) Chrome/119.0.0.0 Safari/537.36" etag="HAcsi6q9OSVIIkUMCpbe" version="22.1.5" type="github">
  <diagram name="Page-1" id="9361dd3d-8414-5efd-6122-117bd74ce7a7">
    <mxGraphModel dx="1791" dy="949" grid="1" gridSize="10" guides="1" tooltips="1" connect="1" arrows="1" fold="1" page="0" pageScale="1.5" pageWidth="826" pageHeight="1169" background="none" math="0" shadow="0">
      <root>
        <mxCell id="0" />
        <mxCell id="1" parent="0" />
        <mxCell id="69" value="" style="fillColor=#DEE8FF;strokeColor=none;movable=0;resizable=0;rotatable=0;deletable=0;editable=0;locked=1;connectable=0;" parent="1" vertex="1">
          <mxGeometry x="-10" y="10" width="1620" height="800" as="geometry" />
        </mxCell>
        <mxCell id="2" value="" style="fillColor=#CC4125;strokeColor=#660000" parent="1" vertex="1">
          <mxGeometry x="200" y="150" width="10" height="180" as="geometry" />
        </mxCell>
        <mxCell id="3" value="打开" style="edgeStyle=none;verticalLabelPosition=top;verticalAlign=bottom;labelPosition=left;align=right" parent="1" edge="1">
          <mxGeometry width="100" height="100" as="geometry">
            <mxPoint x="60" y="150" as="sourcePoint" />
            <mxPoint x="200" y="149.5" as="targetPoint" />
            <mxPoint as="offset" />
          </mxGeometry>
        </mxCell>
        <mxCell id="4" value="APP" style="shadow=1;fillColor=#A2C4C9;strokeColor=none" parent="1" vertex="1">
          <mxGeometry x="152.5" y="60" width="105" height="50" as="geometry" />
        </mxCell>
        <mxCell id="7" value="H5" style="shadow=1;fillColor=#A2C4C9;strokeColor=none" parent="1" vertex="1">
          <mxGeometry x="295" y="60" width="105" height="50" as="geometry" />
        </mxCell>
        <mxCell id="22" value="Orange" style="shadow=1;fillColor=#A2C4C9;strokeColor=none" parent="1" vertex="1">
          <mxGeometry x="622.5" y="60" width="105" height="50" as="geometry" />
        </mxCell>
        <mxCell id="23" value="" style="edgeStyle=none;endArrow=none;dashed=1" parent="1" source="22" edge="1">
          <mxGeometry x="614.4878472222224" y="174.99999999999997" width="100" height="100" as="geometry">
            <mxPoint x="674.6527777777778" y="110" as="sourcePoint" />
            <mxPoint x="675" y="630" as="targetPoint" />
          </mxGeometry>
        </mxCell>
        <mxCell id="24" value="Wormhole" style="shadow=1;fillColor=#A2C4C9;strokeColor=none" parent="1" vertex="1">
          <mxGeometry x="750" y="60" width="105" height="50" as="geometry" />
        </mxCell>
        <mxCell id="25" value="" style="edgeStyle=none;endArrow=none;dashed=1" parent="1" source="24" edge="1">
          <mxGeometry x="727.3350694444446" y="165" width="100" height="100" as="geometry">
            <mxPoint x="802.2588734567901" y="110" as="sourcePoint" />
            <mxPoint x="802" y="630" as="targetPoint" />
          </mxGeometry>
        </mxCell>
        <mxCell id="30" value="CDN" style="shadow=1;fillColor=#A2C4C9;strokeColor=none" parent="1" vertex="1">
          <mxGeometry x="1040" y="61" width="105" height="50" as="geometry" />
        </mxCell>
        <mxCell id="33" value="" style="edgeStyle=elbowEdgeStyle;elbow=horizontal;endArrow=none;dashed=1" parent="1" source="4" target="2" edge="1">
          <mxGeometry x="230.00000000000003" y="310" width="100" height="100" as="geometry">
            <mxPoint x="230.00000000000003" y="410" as="sourcePoint" />
            <mxPoint x="330" y="310" as="targetPoint" />
          </mxGeometry>
        </mxCell>
        <mxCell id="44" value="" style="edgeStyle=none;dashed=1;endArrow=none" parent="1" source="2" edge="1">
          <mxGeometry x="50" y="300" width="100" height="100" as="geometry">
            <mxPoint x="50" y="400" as="sourcePoint" />
            <mxPoint x="205" y="630" as="targetPoint" />
          </mxGeometry>
        </mxCell>
        <mxCell id="64" value="&lt;&lt;service&gt;&gt;&#xa;:GimqService" style="shadow=1;fillColor=#A2C4C9;strokeColor=none" parent="1" vertex="1">
          <mxGeometry x="1302.5" y="60" width="105" height="50" as="geometry" />
        </mxCell>
        <mxCell id="71" value="GCP模块页面链路" style="rounded=1;fontStyle=1;fillColor=#FFD966;strokeColor=none" parent="1" vertex="1">
          <mxGeometry x="10" y="20" width="150" height="30" as="geometry" />
        </mxCell>
        <mxCell id="_tZHAqSpp5SBQxjCIP-J-93" value="" style="group" vertex="1" connectable="0" parent="1">
          <mxGeometry x="650" y="1190" width="1460" height="540" as="geometry" />
        </mxCell>
        <mxCell id="20" value="" style="fillColor=#CCD5EB" parent="_tZHAqSpp5SBQxjCIP-J-93" vertex="1">
          <mxGeometry y="150" width="1460" height="390" as="geometry" />
        </mxCell>
        <mxCell id="81" value="" style="edgeStyle=elbowEdgeStyle;elbow=horizontal;endArrow=none;dashed=1" parent="_tZHAqSpp5SBQxjCIP-J-93" edge="1">
          <mxGeometry x="1460" y="437.8935185185186" width="100" height="100" as="geometry">
            <mxPoint x="1224.5" y="190" as="sourcePoint" />
            <mxPoint x="1224.5" y="350" as="targetPoint" />
          </mxGeometry>
        </mxCell>
        <mxCell id="49" value="" style="fillColor=#CC4125;strokeColor=#660000" parent="_tZHAqSpp5SBQxjCIP-J-93" vertex="1">
          <mxGeometry x="870" y="48.333333333333314" width="10" height="81.66666666666669" as="geometry" />
        </mxCell>
        <mxCell id="53" value="BeginRequest()" style="edgeStyle=elbowEdgeStyle;elbow=vertical;verticalLabelPosition=top;verticalAlign=bottom" parent="_tZHAqSpp5SBQxjCIP-J-93" edge="1">
          <mxGeometry x="530" y="436.8055555555556" width="100" height="100" as="geometry">
            <mxPoint x="222.5" y="57.56944444444446" as="sourcePoint" />
            <mxPoint x="870" y="57.56944444444446" as="targetPoint" />
            <Array as="points" />
          </mxGeometry>
        </mxCell>
        <mxCell id="54" value="" style="edgeStyle=elbowEdgeStyle;elbow=vertical;dashed=1;verticalLabelPosition=bottom;verticalAlign=top" parent="_tZHAqSpp5SBQxjCIP-J-93" edge="1">
          <mxGeometry x="530" y="549.0779320987654" width="100" height="100" as="geometry">
            <mxPoint x="870" y="121.73611111111109" as="sourcePoint" />
            <mxPoint x="222.49999999999994" y="121.73611111111109" as="targetPoint" />
            <Array as="points" />
          </mxGeometry>
        </mxCell>
        <mxCell id="55" value="&lt;&lt;javascript&gt;&gt;&#xa;:Proxy" style="shadow=1;fillColor=#A2C4C9;strokeColor=none" parent="_tZHAqSpp5SBQxjCIP-J-93" vertex="1">
          <mxGeometry x="960" y="42.08333333333337" width="105" height="50" as="geometry" />
        </mxCell>
        <mxCell id="56" value="" style="edgeStyle=none;endArrow=none;dashed=1" parent="_tZHAqSpp5SBQxjCIP-J-93" source="55" target="57" edge="1">
          <mxGeometry x="1204.0711805555559" y="380.08680555555554" width="100" height="100" as="geometry">
            <mxPoint x="1149.2361111111113" y="-94.91319444444446" as="sourcePoint" />
            <mxPoint x="1220" y="25.086805555555543" as="targetPoint" />
          </mxGeometry>
        </mxCell>
        <mxCell id="57" value="" style="fillColor=#CC4125;strokeColor=#660000" parent="_tZHAqSpp5SBQxjCIP-J-93" vertex="1">
          <mxGeometry x="1007.5" y="110" width="10" height="90" as="geometry" />
        </mxCell>
        <mxCell id="58" value="" style="fillColor=#CC4125;strokeColor=#660000" parent="_tZHAqSpp5SBQxjCIP-J-93" vertex="1">
          <mxGeometry x="1220" y="120" width="10" height="70" as="geometry" />
        </mxCell>
        <mxCell id="60" value="&lt;&lt;create&gt;&gt;" style="edgeStyle=elbowEdgeStyle;elbow=vertical;verticalLabelPosition=top;verticalAlign=bottom;dashed=1" parent="_tZHAqSpp5SBQxjCIP-J-93" source="49" target="55" edge="1">
          <mxGeometry x="901.25" y="322.5" width="100" height="100" as="geometry">
            <mxPoint x="901.25" y="-68.10570987654319" as="sourcePoint" />
            <mxPoint x="1018.75" y="-68.10570987654319" as="targetPoint" />
            <Array as="points" />
          </mxGeometry>
        </mxCell>
        <mxCell id="61" value="&lt;&lt;ajax&gt;&gt;" style="edgeStyle=elbowEdgeStyle;elbow=vertical;verticalLabelPosition=top;verticalAlign=bottom" parent="_tZHAqSpp5SBQxjCIP-J-93" source="49" target="57" edge="1">
          <mxGeometry x="1065" y="359.5" width="100" height="100" as="geometry">
            <mxPoint x="914.7839506172838" y="-60.5" as="sourcePoint" />
            <mxPoint x="1065" y="-60.5" as="targetPoint" />
            <Array as="points" />
          </mxGeometry>
        </mxCell>
        <mxCell id="62" value="postComments()" style="edgeStyle=elbowEdgeStyle;elbow=vertical;verticalLabelPosition=top;verticalAlign=bottom" parent="_tZHAqSpp5SBQxjCIP-J-93" edge="1">
          <mxGeometry x="1225" y="309.5" width="100" height="100" as="geometry">
            <mxPoint x="1017.5" y="122.5" as="sourcePoint" />
            <mxPoint x="1220" y="122.5" as="targetPoint" />
            <Array as="points" />
          </mxGeometry>
        </mxCell>
        <mxCell id="63" value="&lt;&lt;json&gt;&gt;" style="edgeStyle=elbowEdgeStyle;elbow=vertical;dashed=1;verticalLabelPosition=bottom;verticalAlign=top" parent="_tZHAqSpp5SBQxjCIP-J-93" edge="1">
          <mxGeometry x="1075" y="396" width="100" height="100" as="geometry">
            <mxPoint x="1220" y="186.5" as="sourcePoint" />
            <mxPoint x="1017.5" y="186.5" as="targetPoint" />
            <Array as="points" />
          </mxGeometry>
        </mxCell>
        <mxCell id="66" value="" style="fillColor=#CC4125;strokeColor=#660000" parent="_tZHAqSpp5SBQxjCIP-J-93" vertex="1">
          <mxGeometry x="70" y="180" width="10" height="130" as="geometry" />
        </mxCell>
        <mxCell id="68" value="&lt;&lt;callback&gt;&gt;" style="edgeStyle=elbowEdgeStyle;elbow=vertical;dashed=1;verticalLabelPosition=bottom;verticalAlign=bottom" parent="_tZHAqSpp5SBQxjCIP-J-93" source="57" target="66" edge="1">
          <mxGeometry x="540" y="559.0779320987654" width="100" height="100" as="geometry">
            <mxPoint x="880" y="131.7361111111111" as="sourcePoint" />
            <mxPoint x="232.49999999999994" y="131.7361111111111" as="targetPoint" />
            <Array as="points" />
          </mxGeometry>
        </mxCell>
        <mxCell id="72" value="opt" style="rounded=1;fontStyle=1;fillColor=#FFD966;strokeColor=none" parent="_tZHAqSpp5SBQxjCIP-J-93" vertex="1">
          <mxGeometry x="22.5" width="87.5" height="30" as="geometry" />
        </mxCell>
        <mxCell id="74" value="Handle errors from Gimq" style="fillColor=#BFC8DB" parent="_tZHAqSpp5SBQxjCIP-J-93" vertex="1">
          <mxGeometry x="60" y="205" width="310" height="60.55555555555554" as="geometry" />
        </mxCell>
        <mxCell id="75" value="ref" style="rounded=1;fontStyle=1;fillColor=#FFD966;strokeColor=none" parent="_tZHAqSpp5SBQxjCIP-J-93" vertex="1">
          <mxGeometry x="66.25" y="212.8935185185186" width="53.75" height="25" as="geometry" />
        </mxCell>
        <mxCell id="76" value="" style="align=left;fillColor=#BFC8DB" parent="_tZHAqSpp5SBQxjCIP-J-93" vertex="1">
          <mxGeometry x="59.99999999999997" y="279.7222222222223" width="1201.1944444444443" height="60.55555555555554" as="geometry" />
        </mxCell>
        <mxCell id="77" value="ref" style="rounded=1;fontStyle=1;fillColor=#FFD966;strokeColor=none" parent="_tZHAqSpp5SBQxjCIP-J-93" vertex="1">
          <mxGeometry x="66.24999999999997" y="287.6157407407409" width="53.75" height="25" as="geometry" />
        </mxCell>
        <mxCell id="78" value="Request all changes" style="text;align=left" parent="_tZHAqSpp5SBQxjCIP-J-93" vertex="1">
          <mxGeometry x="138.05555555555554" y="300.11574074074076" width="351.80555555555554" height="26" as="geometry" />
        </mxCell>
        <mxCell id="84" value="" style="edgeStyle=elbowEdgeStyle;elbow=vertical;endArrow=none" parent="_tZHAqSpp5SBQxjCIP-J-93" edge="1">
          <mxGeometry x="59.999999999999986" y="559.7106481481482" width="100" height="100" as="geometry">
            <mxPoint x="70" y="189.71064814814815" as="sourcePoint" />
            <mxPoint x="19.99999999999997" y="189.71064814814815" as="targetPoint" />
          </mxGeometry>
        </mxCell>
        <mxCell id="85" value="" style="edgeStyle=elbowEdgeStyle;elbow=vertical;endArrow=none" parent="_tZHAqSpp5SBQxjCIP-J-93" edge="1">
          <mxGeometry x="49.99999999999999" y="649.4328703703704" width="100" height="100" as="geometry">
            <mxPoint x="60.00000000000003" y="279.43287037037044" as="sourcePoint" />
            <mxPoint x="10" y="279.43287037037044" as="targetPoint" />
          </mxGeometry>
        </mxCell>
        <mxCell id="86" value="" style="edgeStyle=elbowEdgeStyle;elbow=vertical;endArrow=none" parent="_tZHAqSpp5SBQxjCIP-J-93" edge="1">
          <mxGeometry x="49.99999999999993" y="709.9884259259259" width="100" height="100" as="geometry">
            <mxPoint x="59.99999999999994" y="339.98842592592587" as="sourcePoint" />
            <mxPoint x="9.999999999999943" y="339.98842592592587" as="targetPoint" />
          </mxGeometry>
        </mxCell>
        <mxCell id="88" value="{1..500ms}" style="edgeStyle=elbowEdgeStyle;elbow=horizontal;startArrow=open;endArrow=open;labelPosition=left;align=right" parent="_tZHAqSpp5SBQxjCIP-J-93" edge="1">
          <mxGeometry x="42.89351851851853" y="560" width="100" height="100" as="geometry">
            <mxPoint x="31.446759259259267" y="130" as="sourcePoint" />
            <mxPoint x="31.446759259259267" y="190" as="targetPoint" />
          </mxGeometry>
        </mxCell>
        <mxCell id="89" value="{10..50ms}" style="edgeStyle=elbowEdgeStyle;elbow=horizontal;startArrow=open;endArrow=open;labelPosition=left;align=right" parent="_tZHAqSpp5SBQxjCIP-J-93" edge="1">
          <mxGeometry width="100" height="100" as="geometry">
            <mxPoint x="23.946759259259267" y="280.2777777777778" as="sourcePoint" />
            <mxPoint x="23.946759259259267" y="340.2777777777778" as="targetPoint" />
            <mxPoint x="-4.236111111111107" y="-0.2777777777777883" as="offset" />
          </mxGeometry>
        </mxCell>
        <mxCell id="_tZHAqSpp5SBQxjCIP-J-94" value="拉取最新的Orange Config" style="edgeStyle=elbowEdgeStyle;elbow=vertical;verticalLabelPosition=top;verticalAlign=bottom" edge="1" parent="1">
          <mxGeometry width="100" height="100" as="geometry">
            <mxPoint x="210" y="160" as="sourcePoint" />
            <mxPoint x="670" y="160" as="targetPoint" />
            <mxPoint as="offset" />
          </mxGeometry>
        </mxCell>
        <mxCell id="_tZHAqSpp5SBQxjCIP-J-95" value="返回" style="edgeStyle=elbowEdgeStyle;elbow=vertical;dashed=1;verticalLabelPosition=bottom;verticalAlign=top;strokeColor=#666666;" edge="1" parent="1">
          <mxGeometry x="550" y="280" width="100" height="100" as="geometry">
            <mxPoint x="670" y="170" as="sourcePoint" />
            <mxPoint x="210" y="170" as="targetPoint" />
            <Array as="points">
              <mxPoint x="513" y="170.17" />
            </Array>
          </mxGeometry>
        </mxCell>
        <mxCell id="_tZHAqSpp5SBQxjCIP-J-96" value="" style="fillColor=#CC4125;strokeColor=#660000" vertex="1" parent="1">
          <mxGeometry x="670" y="150.17" width="10" height="29.83" as="geometry" />
        </mxCell>
        <mxCell id="_tZHAqSpp5SBQxjCIP-J-100" value="WebView" style="shadow=1;fillColor=#A2C4C9;strokeColor=none" vertex="1" parent="1">
          <mxGeometry x="449" y="61" width="105" height="50" as="geometry" />
        </mxCell>
        <mxCell id="_tZHAqSpp5SBQxjCIP-J-103" value="拉取 统一主文档" style="edgeStyle=elbowEdgeStyle;elbow=vertical;verticalLabelPosition=top;verticalAlign=bottom" edge="1" parent="1">
          <mxGeometry x="350" y="290" width="100" height="100" as="geometry">
            <mxPoint x="510" y="230.42999999999998" as="sourcePoint" />
            <mxPoint x="800" y="230" as="targetPoint" />
          </mxGeometry>
        </mxCell>
        <mxCell id="_tZHAqSpp5SBQxjCIP-J-104" value="返回" style="edgeStyle=elbowEdgeStyle;elbow=vertical;dashed=1;verticalLabelPosition=bottom;verticalAlign=top;strokeColor=#666666;" edge="1" parent="1">
          <mxGeometry x="550" y="280" width="100" height="100" as="geometry">
            <mxPoint x="800" y="240" as="sourcePoint" />
            <mxPoint x="506.5" y="240.29" as="targetPoint" />
            <Array as="points">
              <mxPoint x="802" y="240.45999999999998" />
            </Array>
          </mxGeometry>
        </mxCell>
        <mxCell id="_tZHAqSpp5SBQxjCIP-J-105" value="访问GCP 模块页面" style="edgeStyle=elbowEdgeStyle;elbow=vertical;verticalLabelPosition=top;verticalAlign=bottom" edge="1" parent="1">
          <mxGeometry x="350" y="290" width="100" height="100" as="geometry">
            <mxPoint x="210" y="282.43" as="sourcePoint" />
            <mxPoint x="340" y="282" as="targetPoint" />
          </mxGeometry>
        </mxCell>
        <mxCell id="_tZHAqSpp5SBQxjCIP-J-108" value="" style="edgeStyle=none;endArrow=none;dashed=1;entryX=0.5;entryY=1;entryDx=0;entryDy=0;" edge="1" parent="1" target="_tZHAqSpp5SBQxjCIP-J-100">
          <mxGeometry x="272.3350694444445" y="165" width="100" height="100" as="geometry">
            <mxPoint x="501.14" y="630" as="sourcePoint" />
            <mxPoint x="500" y="571.4285714285714" as="targetPoint" />
          </mxGeometry>
        </mxCell>
        <mxCell id="17" value="" style="fillColor=#CC4125;strokeColor=#660000" parent="1" vertex="1">
          <mxGeometry x="496.5" y="210" width="10" height="110" as="geometry" />
        </mxCell>
        <mxCell id="_tZHAqSpp5SBQxjCIP-J-109" value="" style="edgeStyle=none;endArrow=none;dashed=1" edge="1" parent="1" source="7">
          <mxGeometry x="272.3350694444445" y="165" width="100" height="100" as="geometry">
            <mxPoint x="347" y="110" as="sourcePoint" />
            <mxPoint x="347" y="630" as="targetPoint" />
          </mxGeometry>
        </mxCell>
        <mxCell id="_tZHAqSpp5SBQxjCIP-J-107" value="" style="fillColor=#CC4125;strokeColor=#660000" vertex="1" parent="1">
          <mxGeometry x="342.5" y="281" width="10" height="31" as="geometry" />
        </mxCell>
        <mxCell id="_tZHAqSpp5SBQxjCIP-J-92" value="闲时启动" style="edgeStyle=elbowEdgeStyle;elbow=vertical;verticalLabelPosition=top;verticalAlign=bottom" edge="1" parent="1">
          <mxGeometry x="350" y="290" width="100" height="100" as="geometry">
            <mxPoint x="210" y="210.14" as="sourcePoint" />
            <mxPoint x="500" y="210" as="targetPoint" />
          </mxGeometry>
        </mxCell>
        <mxCell id="_tZHAqSpp5SBQxjCIP-J-110" value="命中预热容器" style="edgeStyle=elbowEdgeStyle;elbow=vertical;verticalLabelPosition=top;verticalAlign=bottom" edge="1" parent="1">
          <mxGeometry width="100" height="100" as="geometry">
            <mxPoint x="352.5" y="292.43" as="sourcePoint" />
            <mxPoint x="490" y="292" as="targetPoint" />
            <mxPoint as="offset" />
          </mxGeometry>
        </mxCell>
        <mxCell id="_tZHAqSpp5SBQxjCIP-J-111" value="" style="fillColor=#CC4125;strokeColor=#660000" vertex="1" parent="1">
          <mxGeometry x="496.5" y="540" width="10" height="50" as="geometry" />
        </mxCell>
        <mxCell id="_tZHAqSpp5SBQxjCIP-J-113" value="未命中预热容器" style="edgeStyle=elbowEdgeStyle;elbow=vertical;verticalLabelPosition=top;verticalAlign=bottom" edge="1" parent="1">
          <mxGeometry width="100" height="100" as="geometry">
            <mxPoint x="352.5" y="540.4300000000001" as="sourcePoint" />
            <mxPoint x="490" y="540" as="targetPoint" />
            <mxPoint as="offset" />
          </mxGeometry>
        </mxCell>
        <mxCell id="_tZHAqSpp5SBQxjCIP-J-118" value="上屏" style="html=1;align=left;spacingLeft=2;endArrow=block;rounded=0;edgeStyle=orthogonalEdgeStyle;curved=0;rounded=0;" edge="1" parent="1">
          <mxGeometry relative="1" as="geometry">
            <mxPoint x="510" y="320" as="sourcePoint" />
            <Array as="points">
              <mxPoint x="537" y="360" />
            </Array>
            <mxPoint x="506.5" y="360" as="targetPoint" />
          </mxGeometry>
        </mxCell>
        <mxCell id="_tZHAqSpp5SBQxjCIP-J-121" value=" 拉取 HTML片段 " style="edgeStyle=elbowEdgeStyle;elbow=vertical;verticalLabelPosition=top;verticalAlign=bottom" edge="1" parent="1">
          <mxGeometry x="350" y="290" width="100" height="100" as="geometry">
            <mxPoint x="510.5" y="390.42999999999995" as="sourcePoint" />
            <mxPoint x="940" y="390" as="targetPoint" />
          </mxGeometry>
        </mxCell>
        <mxCell id="_tZHAqSpp5SBQxjCIP-J-122" value="MTOP" style="shadow=1;fillColor=#A2C4C9;strokeColor=none" vertex="1" parent="1">
          <mxGeometry x="890" y="61" width="105" height="50" as="geometry" />
        </mxCell>
        <mxCell id="_tZHAqSpp5SBQxjCIP-J-123" value="" style="edgeStyle=none;endArrow=none;dashed=1" edge="1" parent="1">
          <mxGeometry x="727.3350694444446" y="165" width="100" height="100" as="geometry">
            <mxPoint x="942.1" y="111" as="sourcePoint" />
            <mxPoint x="942.1" y="630" as="targetPoint" />
          </mxGeometry>
        </mxCell>
        <mxCell id="_tZHAqSpp5SBQxjCIP-J-124" value="返回" style="edgeStyle=elbowEdgeStyle;elbow=vertical;dashed=1;verticalLabelPosition=bottom;verticalAlign=top;strokeColor=#666666;" edge="1" parent="1">
          <mxGeometry x="550" y="280" width="100" height="100" as="geometry">
            <mxPoint x="933.5" y="400" as="sourcePoint" />
            <mxPoint x="510" y="400" as="targetPoint" />
            <Array as="points">
              <mxPoint x="935.5" y="400.46" />
            </Array>
          </mxGeometry>
        </mxCell>
        <mxCell id="_tZHAqSpp5SBQxjCIP-J-125" value="插入 HTML" style="html=1;align=left;spacingLeft=2;endArrow=block;rounded=0;edgeStyle=orthogonalEdgeStyle;curved=0;rounded=0;" edge="1" parent="1">
          <mxGeometry relative="1" as="geometry">
            <mxPoint x="510" y="416" as="sourcePoint" />
            <Array as="points">
              <mxPoint x="537" y="456" />
            </Array>
            <mxPoint x="506.5" y="456" as="targetPoint" />
          </mxGeometry>
        </mxCell>
        <mxCell id="_tZHAqSpp5SBQxjCIP-J-126" value="拉取JS Bundle" style="edgeStyle=elbowEdgeStyle;elbow=vertical;verticalLabelPosition=top;verticalAlign=bottom" edge="1" parent="1">
          <mxGeometry x="350" y="290" width="100" height="100" as="geometry">
            <mxPoint x="510" y="470.42999999999995" as="sourcePoint" />
            <mxPoint x="1090" y="470" as="targetPoint" />
          </mxGeometry>
        </mxCell>
        <mxCell id="_tZHAqSpp5SBQxjCIP-J-127" value="" style="edgeStyle=none;endArrow=none;dashed=1" edge="1" parent="1">
          <mxGeometry x="727.3350694444446" y="165" width="100" height="100" as="geometry">
            <mxPoint x="1091.97" y="111" as="sourcePoint" />
            <mxPoint x="1091.97" y="601" as="targetPoint" />
          </mxGeometry>
        </mxCell>
        <mxCell id="_tZHAqSpp5SBQxjCIP-J-128" value="返回" style="edgeStyle=elbowEdgeStyle;elbow=vertical;dashed=1;verticalLabelPosition=bottom;verticalAlign=top;strokeColor=#666666;" edge="1" parent="1">
          <mxGeometry x="550" y="280" width="100" height="100" as="geometry">
            <mxPoint x="1090" y="480" as="sourcePoint" />
            <mxPoint x="506.5" y="480" as="targetPoint" />
            <Array as="points">
              <mxPoint x="932" y="480.46" />
            </Array>
          </mxGeometry>
        </mxCell>
        <mxCell id="_tZHAqSpp5SBQxjCIP-J-130" value="用户" style="shadow=1;fillColor=#A2C4C9;strokeColor=none" vertex="1" parent="1">
          <mxGeometry x="10" y="60" width="105" height="50" as="geometry" />
        </mxCell>
        <mxCell id="_tZHAqSpp5SBQxjCIP-J-132" value="" style="edgeStyle=none;endArrow=none;dashed=1" edge="1" parent="1">
          <mxGeometry x="727.3350694444446" y="165" width="100" height="100" as="geometry">
            <mxPoint x="61.83000000000004" y="120" as="sourcePoint" />
            <mxPoint x="61.83000000000004" y="630" as="targetPoint" />
          </mxGeometry>
        </mxCell>
        <mxCell id="_tZHAqSpp5SBQxjCIP-J-133" value="显示Loading" style="edgeStyle=none;verticalLabelPosition=top;verticalAlign=bottom;labelPosition=left;align=right" edge="1" parent="1">
          <mxGeometry width="100" height="100" as="geometry">
            <mxPoint x="496.5" y="360" as="sourcePoint" />
            <mxPoint x="70" y="360" as="targetPoint" />
            <mxPoint as="offset" />
          </mxGeometry>
        </mxCell>
        <mxCell id="_tZHAqSpp5SBQxjCIP-J-134" value="显示首屏页面内容" style="edgeStyle=none;verticalLabelPosition=top;verticalAlign=bottom;labelPosition=left;align=right" edge="1" parent="1">
          <mxGeometry width="100" height="100" as="geometry">
            <mxPoint x="496.5" y="457" as="sourcePoint" />
            <mxPoint x="70" y="457" as="targetPoint" />
            <mxPoint as="offset" />
          </mxGeometry>
        </mxCell>
        <mxCell id="_tZHAqSpp5SBQxjCIP-J-135" value="显示最终页面内容" style="edgeStyle=none;verticalLabelPosition=top;verticalAlign=bottom;labelPosition=left;align=right" edge="1" parent="1">
          <mxGeometry width="100" height="100" as="geometry">
            <mxPoint x="496.5" y="499.05" as="sourcePoint" />
            <mxPoint x="70" y="499.05" as="targetPoint" />
            <mxPoint as="offset" />
          </mxGeometry>
        </mxCell>
        <mxCell id="_tZHAqSpp5SBQxjCIP-J-136" value="拉取JS Bundle" style="edgeStyle=elbowEdgeStyle;elbow=vertical;verticalLabelPosition=top;verticalAlign=bottom" edge="1" parent="1">
          <mxGeometry x="350" y="290" width="100" height="100" as="geometry">
            <mxPoint x="510" y="550.43" as="sourcePoint" />
            <mxPoint x="1090" y="550" as="targetPoint" />
          </mxGeometry>
        </mxCell>
        <mxCell id="_tZHAqSpp5SBQxjCIP-J-137" value="返回" style="edgeStyle=elbowEdgeStyle;elbow=vertical;dashed=1;verticalLabelPosition=bottom;verticalAlign=top;strokeColor=#666666;" edge="1" parent="1">
          <mxGeometry x="550" y="280" width="100" height="100" as="geometry">
            <mxPoint x="1090" y="560" as="sourcePoint" />
            <mxPoint x="506.5" y="560" as="targetPoint" />
            <Array as="points">
              <mxPoint x="932" y="560.46" />
            </Array>
          </mxGeometry>
        </mxCell>
        <mxCell id="_tZHAqSpp5SBQxjCIP-J-140" value="" style="fillColor=#CC4125;strokeColor=#660000" vertex="1" parent="1">
          <mxGeometry x="496.5" y="450" width="10" height="50" as="geometry" />
        </mxCell>
        <mxCell id="_tZHAqSpp5SBQxjCIP-J-120" value="" style="fillColor=#CC4125;strokeColor=#660000" vertex="1" parent="1">
          <mxGeometry x="496.5" y="350" width="10" height="70" as="geometry" />
        </mxCell>
        <mxCell id="_tZHAqSpp5SBQxjCIP-J-142" value="显示最终页面内容" style="edgeStyle=none;verticalLabelPosition=top;verticalAlign=bottom;labelPosition=left;align=right" edge="1" parent="1">
          <mxGeometry width="100" height="100" as="geometry">
            <mxPoint x="496.5" y="590" as="sourcePoint" />
            <mxPoint x="70" y="590" as="targetPoint" />
            <mxPoint as="offset" />
          </mxGeometry>
        </mxCell>
        <mxCell id="_tZHAqSpp5SBQxjCIP-J-143" value="" style="fillColor=#CC4125;strokeColor=#660000" vertex="1" parent="1">
          <mxGeometry x="342.5" y="522" width="10" height="31" as="geometry" />
        </mxCell>
      </root>
    </mxGraphModel>
  </diagram>
</mxfile>
